# xmcd
#
# Track frame offsets:
#	150
#	10216
#	23086
#	39141
#	52732
#	66046
#	78007
#	91710
#	103818
#	126621
#	138197
#	147788
#
# Disc length: 2125 seconds
#
# Revision: 0
# Processed by: cddbd v1.5.2PL0 Copyright (c) Steve Scherf et al.
# Submitted via: dBpowerAMP V4.0
#
DISCID=8b084b0c
DTITLE=Caroline du Preez - Caroline du Preez
DYEAR=1900
DGENRE=Country
TTITLE0=When will I be loved
TTITLE1=Sometimes (with Tommy Dell)
TTITLE2=Touch the hand
TTITLE3=Loving you will never grow old
TTITLE4=Pictures on paper
TTITLE5=Liewe Posman
TTITLE6=When the tingle becomes a chill
TTITLE7=Say forever you'll be mine (with Tommy Dell)
TTITLE8=I'm gonna live my own life
TTITLE9=Making believe
TTITLE10=Before I'm fool enough
TTITLE11=Net soos ek die telefoon neer sit
EXTD=
EXTT0=
EXTT1=
EXTT2=
EXTT3=
EXTT4=
EXTT5=
EXTT6=
EXTT7=
EXTT8=
EXTT9=
EXTT10=
EXTT11=
PLAYORDER=
